<?xml version="1.0" encoding="iso-8859-1"?>
<!-- Generator: Adobe Illustrator 19.0.0, SVG Export Plug-In . SVG Version: 6.00 Build 0)  -->
<svg version="1.1" id="Layer_1" xmlns="http://www.w3.org/2000/svg" xmlns:xlink="http://www.w3.org/1999/xlink" x="0px" y="0px"
	 viewBox="0 0 512 512" style="enable-background:new 0 0 512 512;" xml:space="preserve">
<path style="fill:#E7A53B;" d="M450.466,323.053c-11.872,0-23.407-3.397-33.356-9.825c-2.959-1.91-5.21-4.737-6.409-8.049
	c-3.152-8.7-7.692-17.174-13.493-25.189c-1.99-2.75-3.062-6.058-3.062-9.452v-30.165c0-2.617,0.636-5.193,1.855-7.507
	c10.677-20.289,31.547-32.892,54.466-32.892c33.93,0,61.534,27.605,61.534,61.534C512,295.444,484.396,323.053,450.466,323.053z"/>
<path style="fill:#F3B73F;" d="M61.534,323.053C27.604,323.053,0,295.444,0,261.507c0-33.929,27.604-61.534,61.534-61.534
	c22.919,0,43.789,12.604,54.466,32.892c1.219,2.314,1.855,4.891,1.855,7.507v30.165c0,3.394-1.071,6.702-3.062,9.452
	c-5.801,8.015-10.341,16.49-13.493,25.189c-1.2,3.312-3.451,6.14-6.41,8.049C84.941,319.655,73.406,323.053,61.534,323.053z"/>
<path style="fill:#975F39;" d="M397.201,279.981c-15.496-21.436-38.454-37.372-62.505-47.501c-5.977-2.518-9.864-8.371-9.864-14.857
	v-35.208c0-34.829-52.712-34.83-52.712,0c0,8.903-7.218,16.12-16.12,16.12s-16.12-7.218-16.12-16.12
	c0-14.532-11.823-26.355-26.356-26.355c-14.533,0-26.356,11.823-26.356,26.355v35.208c0,6.485-3.885,12.338-9.861,14.856
	c-26.456,11.147-48.073,27.577-62.517,47.516c-4.099,5.659-11.378,8.033-18.026,5.878c-14.672-4.756-11.15-12.779-11.15-90.558
	c0-93.945,76.435-170.374,170.386-170.374s170.388,76.429,170.388,170.374c0,78.443,3.311,85.879-11.158,90.562
	C408.583,288.025,401.3,285.652,397.201,279.981z"/>
<path style="fill:#7F5334;" d="M426.386,195.314c0-93.945-76.435-170.374-170.386-170.374v173.596c8.903,0,16.12-7.218,16.12-16.12
	c0-34.83,52.712-34.829,52.712,0v35.208c0,6.486,3.886,12.339,9.864,14.857c24.052,10.129,47.009,26.065,62.506,47.501
	c4.099,5.67,11.382,8.044,18.028,5.894C429.698,281.192,426.386,273.757,426.386,195.314z"/>
<path style="fill:#FFC843;" d="M256.001,487.06c-104.338,0-192.402-65.741-192.402-151.137c0-57.157,39.482-103.654,91.329-128.702
	v-24.806c0-52.703,64.686-78.636,101.073-40.325c36.422-38.346,101.073-12.312,101.073,40.325v24.808
	c52.3,25.298,91.329,71.921,91.329,128.699C448.402,421.387,360.253,487.06,256.001,487.06z"/>
<g>
	<path style="fill:#F3B73F;" d="M357.073,207.224v-24.808c0-52.637-64.652-78.671-101.073-40.325V487.06
		c104.252,0,192.402-65.673,192.402-151.137C448.402,279.144,409.373,232.522,357.073,207.224z"/>
	<path style="fill:#F3B73F;" d="M363.507,373.116H148.493c-8.903,0-16.12-7.218-16.12-16.12s7.218-16.12,16.12-16.12h215.013
		c8.903,0,16.12,7.218,16.12,16.12S372.41,373.116,363.507,373.116z"/>
	<path style="fill:#F3B73F;" d="M225.692,318.81c-4.126,0-8.252-1.574-11.398-4.722l-4.186-4.186
		c-6.296-6.295-6.296-16.502,0-22.798c6.294-6.294,16.502-6.294,22.798,0l4.186,4.186c6.296,6.294,6.296,16.502,0,22.798
		C233.943,317.235,229.818,318.81,225.692,318.81z"/>
</g>
<g>
	<path style="fill:#E7A53B;" d="M363.507,340.875H256.001v32.241h107.506c8.903,0,16.12-7.218,16.12-16.12
		S372.41,340.875,363.507,340.875z"/>
	<path style="fill:#E7A53B;" d="M286.308,318.81c-4.126,0-8.252-1.574-11.398-4.722c-6.296-6.294-6.296-16.502,0-22.798l4.186-4.186
		c6.294-6.294,16.502-6.294,22.798,0c6.296,6.295,6.296,16.502,0,22.798l-4.186,4.186C294.56,317.235,290.434,318.81,286.308,318.81
		z"/>
</g>
<circle style="fill:#5C6466;" cx="215.208" cy="238.249" r="21.325"/>
<circle style="fill:#4A5052;" cx="296.875" cy="238.249" r="21.325"/>
<g>
</g>
<g>
</g>
<g>
</g>
<g>
</g>
<g>
</g>
<g>
</g>
<g>
</g>
<g>
</g>
<g>
</g>
<g>
</g>
<g>
</g>
<g>
</g>
<g>
</g>
<g>
</g>
<g>
</g>
</svg>
